# xmcd CD database file
#
# Track frame offsets:
#	150
#	18703
#	40210
#
# Disc length: 737 seconds
#
# Revision: 1
# Processed by: cddbd v1.5.2PL0 Copyright (c) Steve Scherf et al.
# Submitted via: CDex 1.51
#
DISCID=1f02df03
DTITLE=Linda Feller - Linda Feller and Friends
DYEAR=1998
DGENRE=Country
TTITLE0=SWEET HOME ALABAMA
TTITLE1=I CAN'T STOP LOVING YOU
TTITLE2=EVEN COWGIRLS GET THE BLUES
EXTD=YEAR: 1998
EXTT0=
EXTT1=
EXTT2=
PLAYORDER=
